<mxfile host="Electron" agent="Mozilla/5.0 (X11; Linux x86_64) AppleWebKit/537.36 (KHTML, like Gecko) draw.io/24.7.8 Chrome/128.0.6613.36 Electron/32.0.1 Safari/537.36" version="24.7.8">
  <diagram name="Страница — 1" id="5SwPczEOXvC55ZujS5_h">
    <mxGraphModel dx="696" dy="462" grid="1" gridSize="10" guides="1" tooltips="1" connect="1" arrows="1" fold="1" page="1" pageScale="1" pageWidth="827" pageHeight="1169" math="0" shadow="0">
      <root>
        <mxCell id="0" />
        <mxCell id="1" parent="0" />
        <mxCell id="8XaKW5biIzYwm1Ug5PzD-2" value="&amp;nbsp; &amp;nbsp; &lt;font style=&quot;font-size: 14px;&quot;&gt;Клиент&lt;/font&gt;" style="swimlane;fontStyle=0;childLayout=stackLayout;horizontal=1;startSize=30;horizontalStack=0;resizeParent=1;resizeParentMax=0;resizeLast=0;collapsible=1;marginBottom=0;whiteSpace=wrap;html=1;fillColor=#004C99;fontColor=#ffffff;strokeColor=#001DBC;align=left;" vertex="1" parent="1">
          <mxGeometry x="40" y="30" width="200" height="120" as="geometry">
            <mxRectangle x="170" y="60" width="80" height="30" as="alternateBounds" />
          </mxGeometry>
        </mxCell>
        <mxCell id="8XaKW5biIzYwm1Ug5PzD-3" value="&lt;font color=&quot;#004c99&quot;&gt;Имя&lt;/font&gt;" style="text;strokeColor=#56517e;fillColor=#d0cee2;align=left;verticalAlign=middle;spacingLeft=4;spacingRight=4;overflow=hidden;points=[[0,0.5],[1,0.5]];portConstraint=eastwest;rotatable=0;whiteSpace=wrap;html=1;" vertex="1" parent="8XaKW5biIzYwm1Ug5PzD-2">
          <mxGeometry y="30" width="200" height="30" as="geometry" />
        </mxCell>
        <mxCell id="8XaKW5biIzYwm1Ug5PzD-4" value="&lt;font color=&quot;#004c99&quot;&gt;Адрес&lt;/font&gt;" style="text;strokeColor=#56517e;fillColor=#d0cee2;align=left;verticalAlign=middle;spacingLeft=4;spacingRight=4;overflow=hidden;points=[[0,0.5],[1,0.5]];portConstraint=eastwest;rotatable=0;whiteSpace=wrap;html=1;" vertex="1" parent="8XaKW5biIzYwm1Ug5PzD-2">
          <mxGeometry y="60" width="200" height="30" as="geometry" />
        </mxCell>
        <mxCell id="8XaKW5biIzYwm1Ug5PzD-5" value="&lt;font color=&quot;#004c99&quot;&gt;Телефон&lt;/font&gt;" style="text;strokeColor=#56517e;fillColor=#d0cee2;align=left;verticalAlign=middle;spacingLeft=4;spacingRight=4;overflow=hidden;points=[[0,0.5],[1,0.5]];portConstraint=eastwest;rotatable=0;whiteSpace=wrap;html=1;" vertex="1" parent="8XaKW5biIzYwm1Ug5PzD-2">
          <mxGeometry y="90" width="200" height="30" as="geometry" />
        </mxCell>
        <mxCell id="8XaKW5biIzYwm1Ug5PzD-7" value="&lt;font color=&quot;#004c99&quot;&gt;&lt;u&gt;Добавить клиента&lt;/u&gt;&lt;/font&gt;&lt;div&gt;&lt;br&gt;&lt;/div&gt;&lt;div&gt;&lt;font color=&quot;#004c99&quot;&gt;&lt;u&gt;Удалить клиента&lt;/u&gt;&lt;/font&gt;&lt;/div&gt;&lt;div&gt;&lt;u style=&quot;color: rgb(0, 76, 153); background-color: initial;&quot;&gt;&lt;br&gt;&lt;/u&gt;&lt;/div&gt;&lt;div&gt;&lt;u style=&quot;color: rgb(0, 76, 153); background-color: initial;&quot;&gt;Получить информацию&lt;/u&gt;&lt;br&gt;&lt;/div&gt;" style="text;strokeColor=#56517e;fillColor=#d0cee2;align=left;verticalAlign=middle;spacingLeft=4;spacingRight=4;overflow=hidden;points=[[0,0.5],[1,0.5]];portConstraint=eastwest;rotatable=0;whiteSpace=wrap;html=1;" vertex="1" parent="1">
          <mxGeometry x="40" y="150" width="200" height="90" as="geometry" />
        </mxCell>
        <mxCell id="8XaKW5biIzYwm1Ug5PzD-8" value="&amp;nbsp; &amp;nbsp; &lt;font style=&quot;font-size: 14px;&quot;&gt;Заказ&lt;/font&gt;" style="swimlane;fontStyle=0;childLayout=stackLayout;horizontal=1;startSize=30;horizontalStack=0;resizeParent=1;resizeParentMax=0;resizeLast=0;collapsible=1;marginBottom=0;whiteSpace=wrap;html=1;fillColor=#004C99;fontColor=#ffffff;strokeColor=#001DBC;align=left;" vertex="1" parent="1">
          <mxGeometry x="280" y="30" width="200" height="120" as="geometry">
            <mxRectangle x="170" y="60" width="80" height="30" as="alternateBounds" />
          </mxGeometry>
        </mxCell>
        <mxCell id="8XaKW5biIzYwm1Ug5PzD-9" value="&lt;font color=&quot;#004c99&quot;&gt;Номер заказа&lt;/font&gt;" style="text;strokeColor=#56517e;fillColor=#d0cee2;align=left;verticalAlign=middle;spacingLeft=4;spacingRight=4;overflow=hidden;points=[[0,0.5],[1,0.5]];portConstraint=eastwest;rotatable=0;whiteSpace=wrap;html=1;" vertex="1" parent="8XaKW5biIzYwm1Ug5PzD-8">
          <mxGeometry y="30" width="200" height="30" as="geometry" />
        </mxCell>
        <mxCell id="8XaKW5biIzYwm1Ug5PzD-10" value="&lt;font color=&quot;#004c99&quot;&gt;Дата оформления&lt;/font&gt;" style="text;strokeColor=#56517e;fillColor=#d0cee2;align=left;verticalAlign=middle;spacingLeft=4;spacingRight=4;overflow=hidden;points=[[0,0.5],[1,0.5]];portConstraint=eastwest;rotatable=0;whiteSpace=wrap;html=1;" vertex="1" parent="8XaKW5biIzYwm1Ug5PzD-8">
          <mxGeometry y="60" width="200" height="30" as="geometry" />
        </mxCell>
        <mxCell id="8XaKW5biIzYwm1Ug5PzD-11" value="&lt;font color=&quot;#004c99&quot;&gt;Дата выполнения&lt;/font&gt;" style="text;strokeColor=#56517e;fillColor=#d0cee2;align=left;verticalAlign=middle;spacingLeft=4;spacingRight=4;overflow=hidden;points=[[0,0.5],[1,0.5]];portConstraint=eastwest;rotatable=0;whiteSpace=wrap;html=1;" vertex="1" parent="8XaKW5biIzYwm1Ug5PzD-8">
          <mxGeometry y="90" width="200" height="30" as="geometry" />
        </mxCell>
        <mxCell id="8XaKW5biIzYwm1Ug5PzD-12" value="&lt;font color=&quot;#004c99&quot;&gt;&lt;u&gt;Создание нового заказа&lt;/u&gt;&lt;/font&gt;&lt;div&gt;&lt;br&gt;&lt;/div&gt;&lt;div&gt;&lt;font color=&quot;#004c99&quot;&gt;&lt;u&gt;Занести информацию&lt;/u&gt;&lt;/font&gt;&lt;/div&gt;&lt;div&gt;&lt;u style=&quot;color: rgb(0, 76, 153); background-color: initial;&quot;&gt;&lt;br&gt;&lt;/u&gt;&lt;/div&gt;&lt;div&gt;&lt;u style=&quot;color: rgb(0, 76, 153); background-color: initial;&quot;&gt;Получить информацию&lt;/u&gt;&lt;br&gt;&lt;/div&gt;" style="text;strokeColor=#56517e;fillColor=#d0cee2;align=left;verticalAlign=middle;spacingLeft=4;spacingRight=4;overflow=hidden;points=[[0,0.5],[1,0.5]];portConstraint=eastwest;rotatable=0;whiteSpace=wrap;html=1;" vertex="1" parent="1">
          <mxGeometry x="280" y="150" width="200" height="90" as="geometry" />
        </mxCell>
        <mxCell id="8XaKW5biIzYwm1Ug5PzD-17" value="&amp;nbsp; &amp;nbsp; &lt;font style=&quot;font-size: 14px;&quot;&gt;Состав заказа&lt;/font&gt;" style="swimlane;fontStyle=0;childLayout=stackLayout;horizontal=1;startSize=30;horizontalStack=0;resizeParent=1;resizeParentMax=0;resizeLast=0;collapsible=1;marginBottom=0;whiteSpace=wrap;html=1;fillColor=#004C99;fontColor=#ffffff;strokeColor=#001DBC;align=left;" vertex="1" parent="1">
          <mxGeometry x="40" y="270" width="200" height="120" as="geometry">
            <mxRectangle x="170" y="60" width="80" height="30" as="alternateBounds" />
          </mxGeometry>
        </mxCell>
        <mxCell id="8XaKW5biIzYwm1Ug5PzD-18" value="&lt;font color=&quot;#004c99&quot;&gt;Номер пункта заказа&lt;/font&gt;" style="text;strokeColor=#56517e;fillColor=#d0cee2;align=left;verticalAlign=middle;spacingLeft=4;spacingRight=4;overflow=hidden;points=[[0,0.5],[1,0.5]];portConstraint=eastwest;rotatable=0;whiteSpace=wrap;html=1;" vertex="1" parent="8XaKW5biIzYwm1Ug5PzD-17">
          <mxGeometry y="30" width="200" height="30" as="geometry" />
        </mxCell>
        <mxCell id="8XaKW5biIzYwm1Ug5PzD-19" value="&lt;font color=&quot;#004c99&quot;&gt;Количество комплектующих&lt;/font&gt;" style="text;strokeColor=#56517e;fillColor=#d0cee2;align=left;verticalAlign=middle;spacingLeft=4;spacingRight=4;overflow=hidden;points=[[0,0.5],[1,0.5]];portConstraint=eastwest;rotatable=0;whiteSpace=wrap;html=1;" vertex="1" parent="8XaKW5biIzYwm1Ug5PzD-17">
          <mxGeometry y="60" width="200" height="30" as="geometry" />
        </mxCell>
        <mxCell id="8XaKW5biIzYwm1Ug5PzD-20" value="&lt;font color=&quot;#004c99&quot;&gt;Цена&lt;/font&gt;" style="text;strokeColor=#56517e;fillColor=#d0cee2;align=left;verticalAlign=middle;spacingLeft=4;spacingRight=4;overflow=hidden;points=[[0,0.5],[1,0.5]];portConstraint=eastwest;rotatable=0;whiteSpace=wrap;html=1;" vertex="1" parent="8XaKW5biIzYwm1Ug5PzD-17">
          <mxGeometry y="90" width="200" height="30" as="geometry" />
        </mxCell>
        <mxCell id="8XaKW5biIzYwm1Ug5PzD-21" value="&lt;font color=&quot;#004c99&quot;&gt;&lt;u&gt;Создть строку заказа&lt;/u&gt;&lt;/font&gt;&lt;div&gt;&lt;br&gt;&lt;/div&gt;&lt;div&gt;&lt;font color=&quot;#004c99&quot;&gt;&lt;u&gt;Добавить информацию&lt;/u&gt;&lt;/font&gt;&lt;/div&gt;&lt;div&gt;&lt;u style=&quot;color: rgb(0, 76, 153); background-color: initial;&quot;&gt;&lt;br&gt;&lt;/u&gt;&lt;/div&gt;&lt;div&gt;&lt;u style=&quot;color: rgb(0, 76, 153); background-color: initial;&quot;&gt;Получить информацию&lt;/u&gt;&lt;br&gt;&lt;/div&gt;" style="text;strokeColor=#56517e;fillColor=#d0cee2;align=left;verticalAlign=middle;spacingLeft=4;spacingRight=4;overflow=hidden;points=[[0,0.5],[1,0.5]];portConstraint=eastwest;rotatable=0;whiteSpace=wrap;html=1;" vertex="1" parent="1">
          <mxGeometry x="40" y="390" width="200" height="90" as="geometry" />
        </mxCell>
        <mxCell id="8XaKW5biIzYwm1Ug5PzD-22" value="&amp;nbsp; &amp;nbsp; &lt;font style=&quot;font-size: 14px;&quot;&gt;Комплектующее изделие&lt;/font&gt;" style="swimlane;fontStyle=0;childLayout=stackLayout;horizontal=1;startSize=30;horizontalStack=0;resizeParent=1;resizeParentMax=0;resizeLast=0;collapsible=1;marginBottom=0;whiteSpace=wrap;html=1;fillColor=#004C99;fontColor=#ffffff;strokeColor=#001DBC;align=left;" vertex="1" parent="1">
          <mxGeometry x="280" y="270" width="200" height="120" as="geometry">
            <mxRectangle x="170" y="60" width="80" height="30" as="alternateBounds" />
          </mxGeometry>
        </mxCell>
        <mxCell id="8XaKW5biIzYwm1Ug5PzD-23" value="&lt;font color=&quot;#004c99&quot;&gt;Наименование&lt;/font&gt;" style="text;strokeColor=#56517e;fillColor=#d0cee2;align=left;verticalAlign=middle;spacingLeft=4;spacingRight=4;overflow=hidden;points=[[0,0.5],[1,0.5]];portConstraint=eastwest;rotatable=0;whiteSpace=wrap;html=1;" vertex="1" parent="8XaKW5biIzYwm1Ug5PzD-22">
          <mxGeometry y="30" width="200" height="30" as="geometry" />
        </mxCell>
        <mxCell id="8XaKW5biIzYwm1Ug5PzD-24" value="&lt;font color=&quot;#004c99&quot;&gt;Производитель&lt;/font&gt;" style="text;strokeColor=#56517e;fillColor=#d0cee2;align=left;verticalAlign=middle;spacingLeft=4;spacingRight=4;overflow=hidden;points=[[0,0.5],[1,0.5]];portConstraint=eastwest;rotatable=0;whiteSpace=wrap;html=1;" vertex="1" parent="8XaKW5biIzYwm1Ug5PzD-22">
          <mxGeometry y="60" width="200" height="30" as="geometry" />
        </mxCell>
        <mxCell id="8XaKW5biIzYwm1Ug5PzD-25" value="&lt;font color=&quot;#004c99&quot;&gt;Цена&lt;/font&gt;" style="text;strokeColor=#56517e;fillColor=#d0cee2;align=left;verticalAlign=middle;spacingLeft=4;spacingRight=4;overflow=hidden;points=[[0,0.5],[1,0.5]];portConstraint=eastwest;rotatable=0;whiteSpace=wrap;html=1;" vertex="1" parent="8XaKW5biIzYwm1Ug5PzD-22">
          <mxGeometry y="90" width="200" height="30" as="geometry" />
        </mxCell>
        <mxCell id="8XaKW5biIzYwm1Ug5PzD-26" value="&lt;font color=&quot;#004c99&quot;&gt;&lt;u&gt;Добавить новое комплектующее&lt;/u&gt;&lt;/font&gt;&lt;br&gt;&lt;div&gt;&lt;br&gt;&lt;/div&gt;&lt;div&gt;&lt;font color=&quot;#004c99&quot;&gt;&lt;u&gt;Удалить комплектующее&lt;/u&gt;&lt;/font&gt;&lt;/div&gt;&lt;div&gt;&lt;u style=&quot;color: rgb(0, 76, 153); background-color: initial;&quot;&gt;&lt;br&gt;&lt;/u&gt;&lt;/div&gt;&lt;div&gt;&lt;u style=&quot;color: rgb(0, 76, 153); background-color: initial;&quot;&gt;Получить информацию&lt;/u&gt;&lt;br&gt;&lt;/div&gt;" style="text;strokeColor=#56517e;fillColor=#d0cee2;align=left;verticalAlign=middle;spacingLeft=4;spacingRight=4;overflow=hidden;points=[[0,0.5],[1,0.5]];portConstraint=eastwest;rotatable=0;whiteSpace=wrap;html=1;" vertex="1" parent="1">
          <mxGeometry x="280" y="420" width="200" height="90" as="geometry" />
        </mxCell>
        <mxCell id="8XaKW5biIzYwm1Ug5PzD-27" value="&lt;font color=&quot;#004c99&quot;&gt;Описание&lt;/font&gt;" style="text;strokeColor=#56517e;fillColor=#d0cee2;align=left;verticalAlign=middle;spacingLeft=4;spacingRight=4;overflow=hidden;points=[[0,0.5],[1,0.5]];portConstraint=eastwest;rotatable=0;whiteSpace=wrap;html=1;" vertex="1" parent="1">
          <mxGeometry x="280" y="390" width="200" height="30" as="geometry" />
        </mxCell>
      </root>
    </mxGraphModel>
  </diagram>
</mxfile>
